<svg xmlns="http://www.w3.org/2000/svg" viewBox="0 0 512 512">
  <rect width="512" height="512" rx="112" fill="#1976d2"/>
  <path d="M142 172h228a34 34 0 0 1 34 34v148a34 34 0 0 1-34 34H142a34 34 0 0 1-34-34V206a34 34 0 0 1 34-34Z" fill="#fff"/>
  <path d="M180 172v-28a48 48 0 0 1 48-48h56a48 48 0 0 1 48 48v28" fill="none" stroke="#fff" stroke-width="28" stroke-linecap="round"/>
  <path d="M168 260h176M168 316h118" fill="none" stroke="#1976d2" stroke-width="28" stroke-linecap="round"/>
  <circle cx="352" cy="314" r="28" fill="#1976d2"/>
</svg>
